<?xml version="1.0" encoding="UTF-8" standalone="no"?>
<svg
   xmlns:dc="http://purl.org/dc/elements/1.1/"
   xmlns:cc="http://creativecommons.org/ns#"
   xmlns:rdf="http://www.w3.org/1999/02/22-rdf-syntax-ns#"
   xmlns:svg="http://www.w3.org/2000/svg"
   xmlns="http://www.w3.org/2000/svg"
   xmlns:sodipodi="http://sodipodi.sourceforge.net/DTD/sodipodi-0.dtd"
   xmlns:inkscape="http://www.inkscape.org/namespaces/inkscape"
   sodipodi:docname="ikona.svg"
   inkscape:version="1.0 (4035a4fb49, 2020-05-01)"
   id="svg8"
   version="1.1"
   viewBox="0 0 210 297"
   height="297mm"
   width="210mm">
  <defs
     id="defs2" />
  <sodipodi:namedview
     inkscape:window-maximized="1"
     inkscape:window-y="-8"
     inkscape:window-x="-8"
     inkscape:window-height="1057"
     inkscape:window-width="1920"
     showgrid="false"
     inkscape:document-rotation="0"
     inkscape:current-layer="layer1"
     inkscape:document-units="mm"
     inkscape:cy="727.09636"
     inkscape:cx="591.33157"
     inkscape:zoom="0.7"
     inkscape:pageshadow="2"
     inkscape:pageopacity="0.0"
     borderopacity="1.0"
     bordercolor="#666666"
     pagecolor="#ffffff"
     id="base" />
  <metadata
     id="metadata5">
    <rdf:RDF>
      <cc:Work
         rdf:about="">
        <dc:format>image/svg+xml</dc:format>
        <dc:type
           rdf:resource="http://purl.org/dc/dcmitype/StillImage" />
        <dc:title></dc:title>
      </cc:Work>
    </rdf:RDF>
  </metadata>
  <g
     id="layer1"
     inkscape:groupmode="layer"
     inkscape:label="Warstwa 1">
    <path
       sodipodi:nodetypes="ccccsccccccccccccccccscccc"
       id="path76"
       d="m 97.062656,163.33332 v 0.32463 H 76.81379 v 4.86944 h 27.56096 c 10.83314,0 21.40727,-0.0795 30.09178,-8.82375 17.03519,-17.15179 14.50493,-49.60921 -5.62441,-62.169781 -3.52499,-2.19969 -7.55226,-3.66344 -11.5306,-4.22764 -15.78174,-2.23715 -31.242873,9.435671 -35.507227,27.176021 -2.887996,12.01487 -0.465161,25.16527 6.470919,34.73534 2.242281,3.09405 5.369324,6.85846 8.787444,8.11574 m 2.249875,-56.05407 c 9.725359,-1.96855 12.912309,15.13323 3.093579,17.27124 -9.657305,2.10328 -12.816973,-15.30333 -3.093579,-17.27124 m 25.873549,-9.9e-4 c 9.68936,-1.88219 12.78069,15.15923 3.09358,17.27223 -9.69752,2.11562 -12.88025,-15.37152 -3.09358,-17.27223 m -11.81184,18.95992 c 5.32602,0.17918 4.97504,9.33666 -0.28123,9.13441 -5.16037,-0.19901 -4.86536,-9.30744 0.28123,-9.13441 m -12.37427,10.6607 c 9.76811,0.037 9.75264,17.61081 0,17.61081 -10.041466,0 -10.018686,-17.64879 0,-17.61081 m 25.87355,0.0452 c 9.66293,0.18861 9.65955,17.58387 0,17.59816 -10.04793,0.0145 -10.08534,-17.79521 0,-17.59816 z"
       style="fill:#040404;stroke:none;stroke-width:0.302154" />
  </g>
</svg>
