<?xml version="1.0" encoding="UTF-8" standalone="no"?>
<svg
   xmlns:dc="http://purl.org/dc/elements/1.1/"
   xmlns:cc="http://creativecommons.org/ns#"
   xmlns:rdf="http://www.w3.org/1999/02/22-rdf-syntax-ns#"
   xmlns:svg="http://www.w3.org/2000/svg"
   xmlns="http://www.w3.org/2000/svg"
   xmlns:sodipodi="http://sodipodi.sourceforge.net/DTD/sodipodi-0.dtd"
   xmlns:inkscape="http://www.inkscape.org/namespaces/inkscape"
   sodipodi:docname="rysunek.svg"
   inkscape:version="1.0 (4035a4fb49, 2020-05-01)"
   id="svg8"
   version="1.1"
   viewBox="0 0 456 315"
   height="315mm"
   width="456mm">
  <defs
     id="defs2" />
  <sodipodi:namedview
     inkscape:window-maximized="1"
     inkscape:window-y="-8"
     inkscape:window-x="-8"
     inkscape:window-height="1057"
     inkscape:window-width="1920"
     width="421mm"
     units="mm"
     showgrid="false"
     inkscape:document-rotation="0"
     inkscape:current-layer="layer1"
     inkscape:document-units="mm"
     inkscape:cy="983.12804"
     inkscape:cx="924.81093"
     inkscape:zoom="0.35"
     inkscape:pageshadow="2"
     inkscape:pageopacity="0.0"
     borderopacity="1.0"
     bordercolor="#666666"
     pagecolor="#ffffff"
     id="base" />
  <metadata
     id="metadata5">
    <rdf:RDF>
      <cc:Work
         rdf:about="">
        <dc:format>image/svg+xml</dc:format>
        <dc:type
           rdf:resource="http://purl.org/dc/dcmitype/StillImage" />
        <dc:title></dc:title>
      </cc:Work>
    </rdf:RDF>
  </metadata>
  <g
     id="layer1"
     inkscape:groupmode="layer"
     inkscape:label="Warstwa 1">
    <path
       sodipodi:nodetypes="ccccscccccccccccccccscccccscccccscccccsccccccccccccccccccccccccccccccccscccccccccccccccscccccccccccscccccccccccscccc"
       style="fill:#040404;stroke:none;stroke-width:0.659344"
       d="m 43.61478,196.6092 v 0.75166 H 1.9743395 v 11.2754 H 58.6516 c 22.277635,0 44.02262,-0.18408 61.88175,-20.43173 35.03173,-39.7156 29.82842,-114.872012 -11.56622,-143.956472 -7.2489,-5.09344 -15.530723,-8.48283 -23.711914,-9.78924 C 52.80113,29.278595 21.00633,56.307458 12.23697,97.385918 6.2980096,125.20679 11.2804,155.65703 25.54399,177.81689 c 4.6111,7.1644 11.04165,15.88101 18.07079,18.79231 M 48.24149,66.813868 c 19.99956,-4.55824 26.5533,35.041582 6.36174,39.992222 -19.8596,4.87022 -26.35724,-35.435442 -6.36174,-39.992222 m 53.20723,-0.003 c 19.92552,-4.35824 26.28263,35.101782 6.36173,39.994532 -19.942296,4.89881 -26.487364,-35.593332 -6.36173,-39.994482 m 61.32695,61.526522 c 4.48998,9.30756 9.25822,22.62191 14.51432,29.46706 2.75381,3.58572 6.25763,0.25625 4.76978,-7.69979 -2.12239,-11.34184 -12.7878,-20.34456 -12.7878,-32.65726 0,-12.31816 9.75335,-21.279112 11.70644,-32.635402 1.27413,-7.40582 -1.67247,-11.59404 -4.49723,-7.92669 -5.15529,6.69449 -9.51068,20.23565 -13.70551,29.675752 0,-8.421982 1.03539,-20.950652 -0.48624,-28.764692 -1.14918,-5.8996 -4.20054,-5.75992 -5.36659,0 -2.8635,14.14554 -0.59834,40.536652 -0.59834,55.985092 0,4.12121 0.83142,38.63315 5.62301,22.98685 2.02478,-6.61294 0.82816,-20.70751 0.82816,-28.43092 m 121.59177,1.17645 c 4.00438,8.35477 7.13111,21.45532 11.46415,28.32223 2.17518,3.44643 4.94263,0.24632 3.76746,-7.40063 -1.61524,-10.50529 -10.10045,-20.36509 -10.10045,-31.45474 0,-11.84136 7.77121,-20.495992 9.33488,-31.318722 1.06051,-7.3413 -1.41018,-11.28676 -3.64069,-7.64298 -4.25538,6.94882 -7.00499,20.129612 -10.82535,28.564532 0,-8.07556 0.82229,-20.157522 -0.38405,-27.641902 -0.68728,-4.26114 -2.78147,-6.0489 -3.69039,-1.24537 -2.38724,12.61921 -0.38408,40.854172 -0.38408,55.050152 0,3.84601 -0.40637,32.6234 3.44008,23.26417 2.11209,-5.13844 1.01844,-21.45012 1.01844,-28.49674 M 194.46937,78.978638 c -2.99895,2.79648 -1.00154,13.5921 2.00315,11.69936 3.57152,-2.24837 1.48938,-14.95673 -2.00315,-11.69936 m -8.1e-4,24.200832 c -3.75699,4.57128 -2.35622,40.14827 -1.73693,48.71352 0.33236,4.59309 1.9563,10.07156 4.30856,6.86155 3.98036,-5.4314 2.40471,-37.5715 1.93534,-46.72298 -0.24659,-4.81982 -1.75714,-12.198382 -4.50697,-8.85209 m 16.77868,-0.20111 c -4.01018,2.26298 -4.2392,51.79677 -0.64184,55.61493 2.56031,2.71662 4.14001,-3.86174 4.4666,-8.48921 0.68057,-9.64501 -1.19425,-33.32687 6.23099,-32.46306 9.23562,1.07261 1.43376,43.58526 9.12597,41.47851 4.30532,-1.17955 2.77479,-31.661 1.81438,-38.04141 -2.69332,-17.89106 -13.73928,-22.191832 -20.9961,-18.09976 m 42.65107,-0.75523 c -16.99801,2.36638 -14.81427,61.57424 2.07726,58.09555 16.42789,-3.38252 14.40544,-60.389442 -2.07726,-58.09555 m 62.31582,2.24437 c -13.10109,3.1814 -10.80749,59.11938 2.27767,55.78978 13.14505,-3.34372 10.84381,-58.97645 -2.27767,-55.78978 m 84.07519,0 c -12.95201,3.14486 -11.5616,57.76414 1.27389,55.96582 13.37116,-1.87495 12.18394,-59.23264 -1.27389,-55.96582 m -323.130856,6.2452 c 10.952591,0.41491 10.230824,21.61942 -0.57834,21.15107 -10.611949,-0.4605 -10.005273,-21.5514 0.57834,-21.15076 m 267.080696,29.26863 c -2.22603,11.01804 -7.6718,-1.59427 -9.04379,7.50526 -1.01591,6.73952 2.12799,10.60468 3.94903,12.04881 5.20371,4.12328 12.97493,-8.40181 9.08009,-24.70998 -0.80315,-3.36275 -1.98596,-6.03657 -3.35092,-7.50354 -1.76364,-1.89753 -3.88084,-1.82959 -5.72984,-3.03831 v -3.48836 c 2.11081,-1.24021 6.38269,2.88135 7.88335,-1.12856 4.11071,-10.97962 -6.09037,-15.57558 -8.51071,-12.80932 -9.4241,10.77736 -0.78857,32.97397 5.72279,33.124 m 13.21136,-33.06647 c -2.63123,5.60069 -1.34712,35.04429 -1.072,43.52289 0.14346,4.42497 0.89935,10.61343 3.01396,8.92147 4.61777,-3.6976 -1.02356,-44.85711 5.78972,-39.1797 4.98468,4.15472 -1.20636,38.95821 4.58214,39.42047 5.47823,0.43943 -0.37519,-35.55366 5.11393,-39.23735 5.13683,-3.44994 3.53113,23.09826 3.82476,30.05771 0.19479,4.63252 1.38786,11.72433 3.55986,8.50813 3.34382,-4.95171 1.75853,-38.16118 -0.13499,-45.01417 -3.62479,-13.11805 -7.48461,-5.79413 -12.14121,-5.79413 -2.24457,0 -4.28914,-3.03148 -6.63944,-2.78901 -1.61076,0.16706 -4.55784,-1.26633 -5.89669,1.58369 m 70.86392,34.81117 v 3.48847 c -2.45921,1.52962 -6.70753,-3.54956 -8.61261,0.0778 -4.72093,8.99479 6.13875,16.62041 8.61009,14.47847 4.56486,-3.95387 6.29544,-20.29007 2.40695,-29.11736 -2.07131,-4.7042 -4.99353,-4.71814 -7.49989,-6.37162 v -3.48838 c 2.07514,-1.22093 6.30501,2.68088 7.77953,-1.36915 3.73053,-10.24534 -5.60247,-15.01927 -7.77887,-13.32917 -4.48721,3.48844 -6.54196,18.67504 -3.00761,28.12332 2.08976,5.58663 5.41203,5.68963 8.10241,7.50533 m -173.60723,-24.8927 c 8.35743,0 8.25741,29.28549 -9.3e-4,28.92254 -8.25105,-0.36089 -8.24701,-28.92254 9.3e-4,-28.92254 m 62.78083,1.60258 c 6.73814,0.81619 5.93177,29.43323 -0.63441,27.72906 -6.08588,-1.58018 -5.62026,-28.48784 0.63441,-27.72906 m 84.07263,0.0875 c 6.31462,1.20349 5.74264,28.47391 -0.63369,27.70477 -6.62668,-0.80057 -6.06617,-28.98148 0.63369,-27.70477 M 51.71164,135.3978 c 20.087458,0.0859 20.055649,40.77851 0,40.77851 -20.64961,0 -20.60277,-40.86643 0,-40.77851 m 53.20721,0.10464 c 19.87118,0.43675 19.86423,40.71611 0,40.74921 -20.662899,0.0336 -20.73982,-41.20546 0,-40.74921 z"
       id="path76" />
  </g>
</svg>
